<svg version="1.1" xmlns="http://www.w3.org/2000/svg" style="display: block;" viewBox="0 0 2048 2048" width="1024" height="1024" preserveAspectRatio="none">
<defs>
	<linearGradient id="Gradient1" gradientUnits="userSpaceOnUse" x1="1359.93" y1="682.683" x2="1331.36" y2="694.728">
		<stop class="stop0" offset="0" stop-opacity="1" stop-color="rgb(255,119,90)"/>
		<stop class="stop1" offset="1" stop-opacity="1" stop-color="rgb(240,97,95)"/>
	</linearGradient>
</defs>
<path transform="translate(0,0)" fill="rgb(255,255,255)" d="M 0 0 L 2048 0 L 2048 2048 L 0 2048 L 0 0 z"/>
<path transform="translate(0,0)" fill="rgb(243,187,123)" d="M 1282.61 1866.98 C 823.032 2007.68 335.358 1754.8 185.567 1298.1 C 35.7757 841.407 278.94 348.814 732.574 189.994 C 1186.21 31.1744 1683.53 264.521 1851.31 714.915 C 2019.1 1165.31 1795.66 1667.16 1348.68 1843.85 C 1341.4 1846.73 1334.07 1849.51 1326.71 1852.2 C 1320.41 1854.49 1314.09 1856.72 1307.75 1858.87 C 1299.41 1861.7 1291.03 1864.4 1282.61 1866.98 z"/>
<path transform="translate(0,0)" fill="rgb(244,202,152)" d="M 715.853 431.974 C 715.111 405.672 718.927 379.165 731.52 355.724 C 739.549 340.779 751.884 327.473 768.659 322.687 C 782.422 318.761 877.103 318.738 889.389 322.291 C 904.016 326.52 918.375 336.651 931.482 344.224 C 942.593 338.283 954.032 333.827 966.515 331.791 C 995.343 327.091 1021.49 334.858 1044.82 351.818 C 1065.79 369.51 1079.5 392.241 1081.91 419.975 C 1084.19 445.096 1076.3 470.081 1060.02 489.346 C 1043.55 508.866 1020.53 521.465 994.979 523.403 C 971.99 525.148 952.872 518.838 933.485 506.917 C 919.035 516.055 898.913 525.078 881.89 527.373 C 874.665 528.347 866.964 527.914 859.672 527.898 C 859.727 551.236 862.131 711.974 858.393 719.025 C 853.416 721.765 847.486 721.016 841.969 720.882 C 847.129 841.149 888.61 953.716 954.543 1053.84 C 997.323 1118.8 1050.02 1175.96 1098.44 1236.58 C 1186.02 1346.25 1267.83 1485.31 1276.31 1628.79 C 1278.31 1648.26 1277.48 1669.77 1275.24 1689.12 C 1269.96 1734.94 1251 1777.97 1214.04 1806.9 C 1173.8 1838.38 1121.44 1846.11 1071.82 1840.07 C 965.565 1827.13 841.391 1753.28 764.196 1681.38 C 735.426 1654.58 711.136 1625.74 687.019 1594.77 L 685.202 1595.45 C 683.876 1595.13 682.728 1594.71 681.502 1594.11 C 653.805 1580.56 627.878 1561.55 603.89 1542.32 C 506.482 1464.19 432.948 1360.3 391.649 1242.46 C 334.153 1076.34 344.58 894.243 420.661 735.776 C 473.405 628.374 553.168 536.529 652.122 469.257 C 671.122 456.142 693.956 439.549 715.853 431.974 z"/>
<path transform="translate(0,0)" fill="rgb(8,36,63)" d="M 715.853 431.974 C 715.111 405.672 718.927 379.165 731.52 355.724 C 739.549 340.779 751.884 327.473 768.659 322.687 C 782.422 318.761 877.103 318.738 889.389 322.291 C 904.016 326.52 918.375 336.651 931.482 344.224 C 942.593 338.283 954.032 333.827 966.515 331.791 C 995.343 327.091 1021.49 334.858 1044.82 351.818 C 1065.79 369.51 1079.5 392.241 1081.91 419.975 C 1084.19 445.096 1076.3 470.081 1060.02 489.346 C 1043.55 508.866 1020.53 521.465 994.979 523.403 C 971.99 525.148 952.872 518.838 933.485 506.917 C 919.035 516.055 898.913 525.078 881.89 527.373 C 874.665 528.347 866.964 527.914 859.672 527.898 C 859.727 551.236 862.131 711.974 858.393 719.025 C 853.416 721.765 847.486 721.016 841.969 720.882 C 847.129 841.149 888.61 953.716 954.543 1053.84 C 997.323 1118.8 1050.02 1175.96 1098.44 1236.58 C 1186.02 1346.25 1267.83 1485.31 1276.31 1628.79 C 1278.31 1648.26 1277.48 1669.77 1275.24 1689.12 C 1269.96 1734.94 1251 1777.97 1214.04 1806.9 C 1173.8 1838.38 1121.44 1846.11 1071.82 1840.07 C 965.565 1827.13 841.391 1753.28 764.196 1681.38 C 735.426 1654.58 711.136 1625.74 687.019 1594.77 C 653.804 1546.1 630.616 1493.38 619.027 1435.4 C 615.873 1419.62 614.597 1403.63 611.758 1387.85 C 606.086 1388.02 598.814 1389.38 594.298 1385.44 C 590.586 1372.1 592.849 1353.75 592.987 1339.76 C 580.834 1331.65 571.527 1320.82 568.871 1306.01 C 566.209 1291.17 567.804 1273.87 567.811 1258.76 L 567.885 1169.74 L 567.615 997.92 C 567.685 972.408 566.965 946.571 568.088 921.095 C 568.361 914.925 568.473 909.509 572.167 904.245 C 576.201 898.496 583.084 895.471 589.853 894.582 C 591.845 894.329 593.841 894.114 595.841 893.936 L 595.561 748.064 C 597.699 746.246 599.797 744.35 602.082 742.719 C 602.06 727.336 598.219 692.878 608.873 681.616 C 613.709 676.503 620.629 674.674 627.485 674.721 C 634.759 674.771 641.868 676.655 647.076 681.993 C 659.632 694.864 654.723 728.118 654.975 745.213 C 657.214 747.046 659.523 748.824 661.635 750.801 L 661.29 893.956 C 669.677 894.541 676.853 895.976 682.646 902.726 C 685.836 906.443 687.967 910.855 688.378 915.73 C 690.366 939.286 688.764 964.17 688.689 987.843 L 688.651 1118.36 L 688.819 1235.7 C 688.862 1256.12 690.441 1278.09 688.152 1298.33 C 686.294 1314.76 676.45 1327.65 663.626 1337.34 C 663.06 1337.77 662.474 1338.17 661.892 1338.57 C 661.901 1347.92 664.196 1379.04 659.444 1385.48 C 655.795 1387.59 651.83 1387.75 647.723 1388.26 C 657.577 1486.02 697.154 1565.49 766.288 1634.94 C 768.328 1634.45 770.548 1633.89 772.655 1634.15 C 779.296 1634.96 787.01 1638.36 793.497 1640.42 C 806.137 1644.56 818.888 1648.34 831.737 1651.77 C 884.217 1665.67 937.728 1672.05 991.895 1674.63 C 1050.33 1677.41 1110.87 1673.16 1168.19 1661.37 C 1182.1 1658.51 1196 1655.13 1209.73 1651.53 C 1220.47 1648.71 1232.06 1644.23 1243.06 1643.62 C 1238.21 1505.22 1157.11 1365.55 1072.99 1259.98 C 1021.79 1195.72 965.129 1134.96 920.91 1065.48 C 851.288 956.075 815.638 850.146 805.419 721.04 C 801.013 721.122 796.106 721.871 792.278 719.359 C 790.765 716.959 790.709 714.425 790.552 711.671 C 789.318 690.006 790.493 667.722 790.641 645.986 L 791.014 528.157 C 775.661 527.978 761.765 524.93 749.592 514.891 C 725.694 495.185 718.739 461.165 715.853 431.974 z"/>
<path transform="translate(0,0)" fill="rgb(243,187,123)" d="M 766.288 1634.94 C 768.328 1634.45 770.548 1633.89 772.655 1634.15 C 779.296 1634.96 787.01 1638.36 793.497 1640.42 C 806.137 1644.56 818.888 1648.34 831.737 1651.77 C 884.217 1665.67 937.728 1672.05 991.895 1674.63 C 1050.33 1677.41 1110.87 1673.16 1168.19 1661.37 C 1182.1 1658.51 1196 1655.13 1209.73 1651.53 C 1220.47 1648.71 1232.06 1644.23 1243.06 1643.62 C 1243.09 1648.96 1243.07 1654.3 1243.01 1659.64 C 1242.41 1699.98 1231.86 1742.54 1201.88 1771.31 C 1174.91 1797.19 1135.77 1807.69 1099.07 1806.67 C 990.049 1803.65 839.359 1712.29 766.288 1634.94 z"/>
<path transform="translate(0,0)" fill="rgb(8,36,63)" d="M 581.915 1005.47 C 593.683 1003.74 606.806 1004.82 618.714 1004.9 C 636.433 1005.02 654.234 1004.82 671.938 1005.35 L 671.952 1130.08 C 671.81 1166.83 671.277 1203.74 672.981 1240.45 C 660.844 1241.89 648.022 1241.04 635.788 1240.99 L 607.871 1240.97 L 582.15 1240.91 L 581.915 1005.47 z"/>
<path transform="translate(0,0)" fill="rgb(58,91,117)" d="M 581.915 1005.47 C 593.683 1003.74 606.806 1004.82 618.714 1004.9 C 636.433 1005.02 654.234 1004.82 671.938 1005.35 L 671.952 1130.08 C 671.81 1166.83 671.277 1203.74 672.981 1240.45 C 660.844 1241.89 648.022 1241.04 635.788 1240.99 C 635.96 1238.75 635.918 1236.45 635.964 1234.2 C 636.099 1227.63 637.593 1197.02 634.341 1193.63 C 641.215 1190.95 648.921 1186.19 652.273 1179.35 C 659.259 1165.1 659.771 1101.28 653.856 1086.46 C 650.462 1077.96 642.295 1073.07 634.35 1069.43 C 625.475 1068.52 618.403 1068.44 610.189 1072.58 C 608.377 1050.51 608.969 1028.21 608.977 1006.07 C 599.95 1005.63 590.928 1006.54 581.915 1005.47 z"/>
<path transform="translate(0,0)" fill="rgb(59,90,117)" d="M 608.977 1006.07 C 617.959 1006.18 626.942 1006.17 635.923 1006.04 C 635.965 1020.54 637.745 1056.22 635.551 1068.59 L 634.35 1069.43 C 625.475 1068.52 618.403 1068.44 610.189 1072.58 C 608.377 1050.51 608.969 1028.21 608.977 1006.07 z"/>
<path transform="translate(0,0)" fill="rgb(96,123,142)" d="M 581.915 1005.47 C 590.928 1006.54 599.95 1005.63 608.977 1006.07 C 608.969 1028.21 608.377 1050.51 610.189 1072.58 C 603.611 1077.05 599.865 1082.31 598.267 1090.2 C 595.664 1103.04 595.476 1158.33 597.815 1171.89 C 598.413 1175.36 599.66 1178.7 601.67 1181.61 C 603.559 1184.35 605.878 1186.94 608.227 1189.29 C 617.179 1193.37 624.434 1194.68 634.341 1193.63 C 637.593 1197.02 636.099 1227.63 635.964 1234.2 C 635.918 1236.45 635.96 1238.75 635.788 1240.99 L 607.871 1240.97 L 582.15 1240.91 L 581.915 1005.47 z"/>
<path transform="translate(0,0)" fill="rgb(59,90,117)" d="M 608.227 1189.29 C 617.179 1193.37 624.434 1194.68 634.341 1193.63 C 637.593 1197.02 636.099 1227.63 635.964 1234.2 C 635.918 1236.45 635.96 1238.75 635.788 1240.99 L 607.871 1240.97 C 609.202 1224.06 608.169 1206.29 608.227 1189.29 z"/>
<path transform="translate(0,0)" fill="rgb(96,123,142)" d="M 640.303 1173.61 C 636.926 1178.17 633.871 1180.97 628.034 1181.71 C 623.461 1182.29 618.648 1181.26 615.137 1178.15 C 609.832 1173.45 609.444 1166.55 609.303 1159.93 C 608.981 1144.86 607.221 1105.76 610.613 1092.34 C 611.296 1089.64 612.771 1087.26 614.778 1085.33 C 618.151 1082.11 622.469 1080.68 627.094 1080.85 C 633.221 1081.07 636.274 1083.57 640.308 1087.91 C 641.848 1090.67 642.636 1093.12 643.042 1096.27 C 644.468 1107.28 644.812 1158.04 642.37 1167.75 C 641.865 1169.76 641.099 1171.7 640.303 1173.61 z"/>
<path transform="translate(0,0)" fill="rgb(59,90,117)" d="M 640.308 1087.91 C 641.848 1090.67 642.636 1093.12 643.042 1096.27 C 644.468 1107.28 644.812 1158.04 642.37 1167.75 C 641.865 1169.76 641.099 1171.7 640.303 1173.61 C 638.113 1163.28 639.695 1151.1 639.759 1140.51 C 639.865 1123 639.555 1105.41 640.308 1087.91 z"/>
<path transform="translate(0,0)" fill="rgb(96,123,142)" d="M 817.856 721.024 C 820.691 720.913 823.262 720.927 826.073 721.335 C 827.669 722.781 828.511 723.419 829.075 725.604 C 830.434 730.871 829.585 737.947 830.053 743.515 C 831.264 756.867 832.832 770.185 834.754 783.455 C 843.474 843.882 861.069 902.691 886.968 957.979 C 911.713 1011.13 942.157 1061.43 977.765 1108.01 C 1009.25 1149.4 1043.67 1188.29 1076.28 1228.76 C 1162.7 1335.99 1240.05 1457.79 1260.34 1596.64 C 1268.7 1653.83 1268.96 1722.49 1232.65 1770.7 C 1208.04 1803.38 1170.7 1822.23 1130.54 1827.74 C 1031.81 1841.29 903.382 1774.09 826.824 1716.33 C 721.391 1636.79 645.072 1539.83 626.364 1406.05 C 625.777 1402.11 624.623 1397.34 625.064 1393.38 C 625.372 1390.61 626.422 1388.81 628.494 1386.99 C 631.647 1386.79 633.851 1387.73 635.004 1391.06 C 638.016 1399.75 637.884 1411.72 639.478 1421.01 C 643.006 1441.57 647.837 1462.35 654.318 1482.19 C 678.583 1556.46 730.286 1623.03 788.953 1673.57 C 867.655 1741.38 1010.66 1827.13 1118.46 1818.59 C 1157.27 1815.51 1194.64 1800.54 1220.04 1770.22 C 1253.98 1729.69 1258.89 1672.36 1253.77 1621.77 C 1238.66 1472.68 1157.29 1344.2 1065.19 1230.22 C 1041.73 1201.18 1017.02 1173.13 993.746 1143.96 C 960.174 1102.51 930.137 1058.32 903.95 1011.85 C 852.572 920.069 826.67 825.45 817.856 721.024 z"/>
<path transform="translate(0,0)" fill="rgb(255,255,255)" d="M 775.831 336.169 C 783.424 335.57 790.111 337.249 796.528 341.379 C 812.733 351.811 821.186 375.11 825.178 393.095 C 832.141 424.47 829.195 465.833 811.234 493.33 C 804.089 504.268 795.745 510.644 782.962 513.235 C 776.403 512.907 770.948 511.681 765.247 508.302 C 747.75 497.927 738.207 476.285 733.535 457.33 C 725.832 426.071 728.365 386.91 745.626 359.059 C 752.859 347.388 762.267 339.373 775.831 336.169 z"/>
<path transform="translate(0,0)" fill="rgb(8,36,63)" d="M 770.988 422.723 L 773.168 423.902 C 775.306 426.577 775.765 432.418 775.595 435.818 C 775.457 438.592 774.739 439.602 772.713 441.359 C 768.336 442.017 764.194 439.383 759.959 438.338 L 757.323 441.143 L 757.433 442.549 L 761.279 443.277 L 761.841 444.296 C 759.813 445.085 758.372 445.311 756.947 447.019 C 758.647 450.432 763.102 450.915 765.611 453.719 C 766.762 455.005 766.125 457.768 766.058 459.455 L 767.127 459.149 C 768.067 456.698 768.938 454.074 770.12 451.732 C 771.247 449.499 771.781 448.078 774.277 447.313 C 775.604 448.551 776.46 449.223 776.971 451.038 C 778.849 457.712 760.97 466.459 757.257 472.111 C 756.962 474.673 756.695 474.684 758.273 476.676 C 762.59 476.066 767.824 471.231 771.629 468.829 L 772.939 469.205 C 773.128 472.392 771.654 475.018 770.416 477.87 C 769.518 478.921 768.357 480.547 767.199 481.275 C 764.678 482.859 762.593 482.199 759.828 481.81 C 755.758 481.238 753.158 480.78 750.563 477.305 C 750.407 473.735 751.602 472.855 753.554 469.947 C 752.995 468.119 753.328 468.315 752.29 467.221 C 750.526 465.362 748.549 463.677 746.763 461.827 C 744.405 459.385 743.928 457.443 744.011 454.033 C 745.527 452.18 745.714 451.986 747.987 451.273 C 752.08 455.207 750.385 462.337 755.222 465.895 C 757.703 465.8 759.714 465.358 761.547 463.47 C 763.691 461.264 763.597 460.455 763.569 457.586 C 761.222 452.673 755.785 449.181 751.533 445.91 C 754.32 441.563 757.423 437.442 760.479 433.282 C 762.986 432.236 765.545 431.289 768.076 430.302 C 769.983 432.729 767.843 435.073 769.344 437.953 C 771.094 435.644 772.413 431.666 772.04 428.724 C 771.789 426.756 771.304 424.701 770.988 422.723 z"/>
<path transform="translate(0,0)" fill="rgb(8,36,63)" d="M 746.889 425.743 C 744.166 424.161 740.019 422.027 738.447 419.143 C 737.271 416.984 736.894 415.264 738.041 412.979 C 738.874 411.322 740.412 410.432 742.025 409.707 C 743.788 408.913 743.125 408.981 744.754 409.587 L 743.833 413.962 L 744.49 414.712 C 746.809 413.465 748.767 411.997 750.833 410.388 L 752.105 411.564 C 752.431 412.128 752.745 412.697 753.081 413.254 C 756.281 418.564 761.556 418.905 760.483 425.976 C 758.891 428.304 757.489 429.715 754.712 430.497 C 752.983 430.985 751.032 431.045 749.596 429.8 C 749.079 429.352 748.355 428.228 747.954 427.642 L 752.875 427.76 C 755.053 426.206 755.855 425.491 756.709 422.931 C 756.473 420.624 755.55 418.747 753.715 417.269 C 751.739 415.678 750.316 415.528 747.883 415.631 C 746.06 417.119 745.915 417.334 745.203 419.577 L 747.586 422.984 L 746.889 425.743 z"/>
<path transform="translate(0,0)" fill="rgb(8,36,63)" d="M 751.729 407.74 C 747.401 404.289 742.717 401.428 740.93 395.953 L 741.516 393.31 C 743.887 391.805 744.422 391.889 747.268 391.871 L 749.787 393.289 C 750.761 396.955 747.754 399.705 748.881 403.664 C 750.861 404.518 751.202 404.593 753.332 403.743 C 756.785 402.365 759.496 399.477 761.677 396.571 C 760.934 394.18 757.204 392.761 757.721 391.12 L 761.201 390.508 C 762.203 391.448 763.408 392.037 763.53 393.502 C 763.834 397.164 760.581 400.062 761.62 403.666 L 765.932 407.019 C 760.365 405.747 757.207 406.369 751.729 407.74 z"/>
<path transform="translate(0,0)" fill="rgb(8,36,63)" d="M 768.838 407.568 C 771.697 407.504 771.59 407.552 773.761 409.437 C 774.487 412.511 774.583 414.55 772.816 417.314 C 771.524 419.333 770.295 420.128 768.105 420.938 C 765.573 420.454 763.706 419.712 762.144 417.474 C 761.794 416.971 761.546 416.404 761.248 415.869 C 763.11 415.405 764.756 414.713 766.542 414.007 C 768.553 411.443 768.511 410.854 768.838 407.568 z"/>
<path transform="translate(0,0)" fill="rgb(8,36,63)" d="M 755.045 365.373 C 758.393 365.93 760.352 367.061 762.638 369.48 C 765.142 372.128 766.587 374.784 766.238 378.558 C 766.032 380.783 764.497 381.162 762.843 382.45 L 760.623 382.85 C 761.214 381.451 761.736 380.055 762.253 378.628 C 760.641 375.449 758.739 375.046 756.705 372.635 C 754.744 370.313 755.143 368.212 755.045 365.373 z"/>
<path transform="translate(0,0)" fill="rgb(8,36,63)" d="M 766.541 387.556 C 768.053 388.238 769.374 388.862 770.428 390.22 C 773.696 394.429 772.632 399.405 771.518 404.151 C 768.344 402.192 766.678 400.324 765.912 396.619 C 765.289 393.61 764.84 390.247 766.541 387.556 z"/>
<path transform="translate(0,0)" fill="rgb(220,56,59)" d="M 809.579 333.607 C 834.594 334.037 859.636 333.806 884.657 334.067 C 896.812 340.645 901.45 352.181 906.794 364.165 C 921.406 396.144 923.01 440.874 910.66 473.818 C 905.341 488.006 896.739 503.568 884.465 512.879 C 861.22 513.939 837.922 512.517 814.675 513.298 C 839.895 482.452 844.552 441.437 840.497 402.824 C 839.137 390.074 836.227 377.538 831.831 365.492 C 825.866 353.391 818.936 343.323 809.579 333.607 z"/>
<path transform="translate(0,0)" fill="rgb(244,156,141)" d="M 809.579 333.607 C 834.594 334.037 859.636 333.806 884.657 334.067 C 896.812 340.645 901.45 352.181 906.794 364.165 C 884.421 368.406 855.163 362.787 831.831 365.492 C 825.866 353.391 818.936 343.323 809.579 333.607 z"/>
<path transform="translate(0,0)" fill="rgb(58,91,117)" d="M 953.569 348.708 C 969.673 344.338 985.719 342.787 1002.19 346.221 C 1026.01 351.188 1043.81 364.593 1056.88 384.821 C 1068.24 402.018 1071.49 423.311 1067.31 443.35 C 1062.65 465.673 1049.73 485.02 1030.43 497.277 C 1012.98 508.529 991.76 512.346 971.483 507.881 C 965.054 506.425 959.239 503.915 953.426 500.825 C 972.992 484.671 982.237 464.524 984.71 439.362 C 986.426 421.9 984.456 405.233 980.257 388.266 C 974.054 371.262 968.372 359.884 953.569 348.708 z"/>
<path transform="translate(0,0)" fill="rgb(96,123,142)" d="M 953.569 348.708 C 969.673 344.338 985.719 342.787 1002.19 346.221 C 1026.01 351.188 1043.81 364.593 1056.88 384.821 C 1045.63 390.13 995.902 387.436 980.257 388.266 C 974.054 371.262 968.372 359.884 953.569 348.708 z"/>
<path transform="translate(0,0)" fill="rgb(58,91,117)" d="M 822.173 527.986 L 844.912 527.96 L 844.967 549.377 L 844.992 706.985 C 831.605 707.044 817.547 708.321 804.258 707.165 C 802.49 654.862 805.342 602.329 803.61 550.004 C 803.074 542.711 803.254 535.292 803.191 527.977 L 822.173 527.986 z"/>
<path transform="translate(0,0)" fill="rgb(96,123,142)" d="M 803.61 550.004 L 821.972 549.747 L 821.913 706.804 C 816.147 706.846 809.974 706.51 804.258 707.165 C 802.49 654.862 805.342 602.329 803.61 550.004 z"/>
<path transform="translate(0,0)" fill="rgb(59,90,117)" d="M 822.173 527.986 L 844.912 527.96 L 844.967 549.377 L 822.054 549.49 L 822.173 527.986 z"/>
<path transform="translate(0,0)" fill="rgb(59,90,117)" d="M 588.916 908.624 C 597.28 906.677 607.676 907.808 616.32 907.896 C 633.753 908.074 651.367 908.719 668.769 907.581 C 671.049 908.375 671.935 908.263 672.939 910.624 C 676.163 918.208 674.214 955.845 674.163 966.642 C 662.566 967.22 649.849 967.971 638.295 966.842 C 622.159 966.98 605.565 967.645 589.493 966.156 C 586.771 966.212 584.165 966.539 581.657 965.295 C 580.208 953.553 579.125 926.557 582.395 915.353 C 583.537 911.442 585.546 910.382 588.916 908.624 z"/>
<path transform="translate(0,0)" fill="rgb(58,91,117)" d="M 588.916 908.624 C 597.28 906.677 607.676 907.808 616.32 907.896 C 633.753 908.074 651.367 908.719 668.769 907.581 C 671.049 908.375 671.935 908.263 672.939 910.624 C 676.163 918.208 674.214 955.845 674.163 966.642 C 662.566 967.22 649.849 967.971 638.295 966.842 C 622.159 966.98 605.565 967.645 589.493 966.156 C 595.991 965.868 602.496 965.754 609 965.814 L 636.978 965.892 L 636.99 909.122 L 608.958 909.083 C 602.281 908.792 595.599 908.639 588.916 908.624 z"/>
<path transform="translate(0,0)" fill="rgb(59,90,117)" d="M 668.769 907.581 C 671.049 908.375 671.935 908.263 672.939 910.624 C 676.163 918.208 674.214 955.845 674.163 966.642 C 662.566 967.22 649.849 967.971 638.295 966.842 C 641.556 964.935 663.688 966.211 668.788 966.038 C 669.446 946.576 669.047 927.049 668.769 907.581 z"/>
<path transform="translate(0,0)" fill="rgb(96,123,142)" d="M 588.916 908.624 C 595.599 908.639 602.281 908.792 608.958 909.083 L 609 965.814 C 602.496 965.754 595.991 965.868 589.493 966.156 C 586.771 966.212 584.165 966.539 581.657 965.295 C 580.208 953.553 579.125 926.557 582.395 915.353 C 583.537 911.442 585.546 910.382 588.916 908.624 z"/>
<path transform="translate(0,0)" fill="rgb(59,90,117)" d="M 634.946 1279.93 C 645.812 1279.94 657.328 1280.66 668.109 1279.61 C 669.569 1279.83 672.25 1279.72 673.007 1281.06 C 676.397 1287.04 673.834 1299.85 671.566 1306.17 C 670.882 1308.08 669.965 1309.9 668.837 1311.6 C 664.18 1319.88 659.442 1325.65 649.877 1328.4 C 645.006 1329.81 639.979 1329.94 634.952 1330.08 L 615.918 1330.22 C 606.441 1330.24 598.655 1329.57 591.415 1322.54 C 579.981 1311.44 581.151 1294.64 581.257 1280.04 L 607.322 1279.92 L 634.946 1279.93 z"/>
<path transform="translate(0,0)" fill="rgb(58,91,117)" d="M 634.946 1279.93 C 645.812 1279.94 657.328 1280.66 668.109 1279.61 C 669.569 1279.83 672.25 1279.72 673.007 1281.06 C 676.397 1287.04 673.834 1299.85 671.566 1306.17 C 670.882 1308.08 669.965 1309.9 668.837 1311.6 C 664.18 1319.88 659.442 1325.65 649.877 1328.4 C 645.006 1329.81 639.979 1329.94 634.952 1330.08 L 634.946 1279.93 z"/>
<path transform="translate(0,0)" fill="rgb(59,90,117)" d="M 668.109 1279.61 C 669.569 1279.83 672.25 1279.72 673.007 1281.06 C 676.397 1287.04 673.834 1299.85 671.566 1306.17 C 670.882 1308.08 669.965 1309.9 668.837 1311.6 C 667.093 1301.34 668.018 1290 668.109 1279.61 z"/>
<path transform="translate(0,0)" fill="rgb(96,123,142)" d="M 581.257 1280.04 L 607.322 1279.92 C 606.885 1297.9 603.556 1315.4 615.918 1330.22 C 606.441 1330.24 598.655 1329.57 591.415 1322.54 C 579.981 1311.44 581.151 1294.64 581.257 1280.04 z"/>
<path transform="translate(0,0)" fill="rgb(220,56,59)" d="M 913.286 347.376 C 921.865 350.645 929.499 355.992 935.502 362.938 C 952.198 382.2 957.663 413.793 955.61 438.487 C 953.652 462.038 945.341 481.656 927.137 497.017 C 921.002 501.196 915.356 503.581 908.221 505.343 C 914.727 497.35 919.86 488.333 923.411 478.658 C 939.907 434.842 931.938 388.904 913.286 347.376 z"/>
<path transform="translate(0,0)" fill="rgb(255,255,255)" d="M 635.887 847.488 L 644.567 847.453 C 644.382 862.969 644.281 878.486 644.265 894.004 L 621.246 894.014 C 618.04 894.112 615.013 893.984 611.826 893.616 C 608.841 890.098 610.476 854.561 610.523 847.587 L 635.887 847.488 z"/>
<path transform="translate(0,0)" fill="rgb(58,91,117)" d="M 605.383 1342.33 C 619.538 1341.93 633.759 1342.09 647.922 1341.97 C 647.867 1353.21 647.721 1364.46 647.486 1375.7 C 633.496 1375.91 619.488 1375.79 605.495 1375.81 C 605.234 1364.65 605.197 1353.49 605.383 1342.33 z"/>
<path transform="translate(0,0)" fill="rgb(96,123,142)" d="M 606.155 1343.15 L 632.102 1343.12 L 632.144 1374.97 L 606.151 1374.92 L 606.155 1343.15 z"/>
<path transform="translate(0,0)" fill="rgb(255,255,255)" d="M 581.207 1253.07 L 674.851 1252.92 C 674.92 1257.61 674.693 1262.27 674.499 1266.95 C 643.519 1267.9 612.3 1267.8 581.309 1267.19 L 581.207 1253.07 z"/>
<path transform="translate(0,0)" fill="rgb(255,255,255)" d="M 622.803 688.148 C 626.673 687.914 631.61 687.791 635.031 689.872 C 637.181 691.179 638.848 692.856 639.366 695.376 C 640.596 701.354 641.712 737.082 639.051 740.836 L 635.25 741.025 L 616.102 740.992 C 616.116 726.782 613.531 709.565 616.691 695.785 C 617.592 691.852 619.513 690.228 622.803 688.148 z"/>
<path transform="translate(0,0)" fill="rgb(255,255,255)" d="M 581.283 979.502 C 612.342 978.88 643.548 979.573 674.622 979.629 L 674.383 992.442 C 643.327 992.68 612.269 992.732 581.213 992.599 L 581.283 979.502 z"/>
<path transform="translate(0,0)" fill="rgb(255,255,255)" d="M 625.627 755.45 C 631.39 755.24 637.167 755.445 642.931 755.549 L 642.967 784.997 L 629.5 784.991 L 610.332 784.962 L 610.476 755.963 L 625.627 755.45 z"/>
<path transform="translate(0,0)" fill="rgb(255,255,255)" d="M 610.997 801.846 L 643.101 801.765 L 643.118 830.789 L 611.025 830.783 L 610.997 801.846 z"/>
<path transform="translate(0,0)" fill="rgb(255,255,255)" d="M 947.199 356.668 C 948.435 357.165 949.598 357.631 950.717 358.363 C 965.414 367.982 972.568 390.016 975.163 406.415 C 979.452 433.518 975.028 460.063 958.709 482.419 L 956.665 484.425 L 956.376 483.254 C 962.959 470.536 967.529 458.252 969.555 443.99 C 974.21 413.058 966.145 381.559 947.199 356.668 z"/>
<path transform="translate(0,0)" fill="rgb(244,202,152)" d="M 1044.82 351.818 C 1055.24 348.217 1071.12 351.217 1082.07 352.088 C 1161.34 358.965 1238.7 380.24 1310.34 414.869 C 1471.75 494.071 1594.83 634.493 1652.19 804.901 C 1709.19 973.84 1697.12 1158.46 1618.6 1318.54 C 1590.02 1376.74 1553.85 1427.24 1509.44 1474.43 C 1490.21 1494.87 1470.9 1513.83 1447.82 1529.98 C 1446.09 1620.64 1431.72 1700.57 1388.3 1781.16 C 1380.79 1795.08 1372.14 1808.52 1363.34 1821.65 C 1358.61 1828.69 1352.21 1836.2 1348.68 1843.85 C 1341.4 1846.73 1334.07 1849.51 1326.71 1852.2 C 1320.41 1854.49 1314.09 1856.72 1307.75 1858.87 C 1299.41 1861.7 1291.03 1864.4 1282.61 1866.98 C 1295.98 1846.78 1314.77 1828.81 1328.97 1808.53 C 1381.19 1733.97 1408.29 1649.1 1411.92 1558.46 C 1400.67 1563.42 1390.16 1571.86 1379.61 1578.26 C 1360.15 1590.08 1294.73 1626.02 1276.31 1628.79 C 1267.83 1485.31 1186.02 1346.25 1098.44 1236.58 C 1050.02 1175.96 997.323 1118.8 954.543 1053.84 C 888.61 953.716 847.129 841.149 841.969 720.882 C 847.486 721.016 853.416 721.765 858.393 719.025 C 862.131 711.974 859.727 551.236 859.672 527.898 C 866.964 527.914 874.665 528.347 881.89 527.373 C 898.913 525.078 919.035 516.055 933.485 506.917 C 952.872 518.838 971.99 525.148 994.979 523.403 C 1020.53 521.465 1043.55 508.866 1060.02 489.346 C 1076.3 470.081 1084.19 445.096 1081.91 419.975 C 1079.5 392.241 1065.79 369.51 1044.82 351.818 z"/>
<path transform="translate(0,0)" fill="rgb(8,36,63)" d="M 1341.33 661.039 C 1355 649.846 1378.41 641.626 1395.91 639.002 C 1408.06 637.18 1421.35 637.748 1433.68 637.425 C 1450.51 636.986 1467.44 636.055 1484.27 636.179 C 1499.19 636.289 1511.75 639.95 1522.45 650.934 C 1545.22 674.324 1551.71 709.521 1551.1 740.995 C 1550.53 770.299 1542.15 805.802 1520.14 826.77 C 1504.9 841.287 1485.35 838.606 1466.05 838.179 C 1465.93 902.708 1466.82 967.335 1465.84 1031.85 C 1459.91 1032.14 1453.9 1032.01 1447.96 1032.08 L 1447.82 1529.98 C 1446.09 1620.64 1431.72 1700.57 1388.3 1781.16 C 1380.79 1795.08 1372.14 1808.52 1363.34 1821.65 C 1358.61 1828.69 1352.21 1836.2 1348.68 1843.85 C 1341.4 1846.73 1334.07 1849.51 1326.71 1852.2 C 1320.41 1854.49 1314.09 1856.72 1307.75 1858.87 C 1299.41 1861.7 1291.03 1864.4 1282.61 1866.98 C 1295.98 1846.78 1314.77 1828.81 1328.97 1808.53 C 1381.19 1733.97 1408.29 1649.1 1411.92 1558.46 L 1411.98 1032.37 C 1407.09 1032.33 1401.39 1032.98 1397.21 1030.13 C 1394.16 1024.81 1395.95 862.03 1395.98 841.112 C 1369.8 841.322 1358.75 838.111 1337.93 822.001 C 1327.91 828.022 1317.91 833.359 1306.48 836.163 C 1282.35 841.894 1256.92 837.861 1235.74 824.943 C 1213.71 811.508 1197.1 788.101 1191.25 762.99 C 1185.3 737.705 1189.75 711.091 1203.59 689.112 C 1217.63 667.053 1239.38 652.579 1264.8 646.951 C 1291.17 641.143 1318.76 646.222 1341.33 661.039 z"/>
<path transform="translate(0,0)" fill="rgb(96,123,142)" d="M 1424.07 1032.52 C 1427.82 1032.4 1431.59 1032.49 1435.33 1032.49 L 1435.23 1360.2 L 1435.26 1482.51 C 1435.28 1557.01 1434.7 1622.74 1411.64 1694.52 C 1397.59 1738.27 1376.33 1777.68 1351.65 1816.25 C 1344.34 1827.68 1331.42 1838.65 1326.96 1851.4 C 1326.87 1851.66 1326.79 1851.93 1326.71 1852.2 C 1320.41 1854.49 1314.09 1856.72 1307.75 1858.87 C 1313.91 1844.7 1328.7 1831.57 1337.79 1818.73 C 1360.48 1786.7 1380.6 1750.96 1394.39 1714.16 C 1407.62 1678.85 1417.22 1640.92 1421.53 1603.44 C 1425.29 1570.69 1424.82 1537.68 1425.08 1504.75 C 1425.46 1455.17 1425.45 1405.58 1425.06 1355.99 C 1424.54 1248.2 1426.46 1140.29 1424.07 1032.52 z"/>
<path transform="translate(0,0)" fill="rgb(58,91,117)" d="M 1213.92 698.535 C 1227.87 678.573 1245.7 663.504 1270.29 659.223 C 1288.63 656.032 1305.97 658.804 1322.61 666.891 C 1312.02 677.052 1306.27 685.994 1300.55 699.466 C 1290.33 727.928 1290.99 759.596 1303.88 787.155 C 1305.08 789.715 1306.32 792.256 1307.6 794.776 C 1312.76 802.291 1318.89 808.754 1325.19 815.308 C 1306.97 824.711 1289.98 828.895 1269.46 824.769 C 1246.63 820.178 1228.28 805.745 1215.68 786.555 C 1209.62 777.359 1205.48 767.028 1203.52 756.188 C 1200.16 737.089 1202.68 714.743 1213.92 698.535 z"/>
<path transform="translate(0,0)" fill="rgb(96,123,142)" d="M 1213.92 698.535 C 1227.87 678.573 1245.7 663.504 1270.29 659.223 C 1288.63 656.032 1305.97 658.804 1322.61 666.891 C 1312.02 677.052 1306.27 685.994 1300.55 699.466 C 1271.67 699.949 1242.78 699.639 1213.92 698.535 z"/>
<path transform="translate(0,0)" fill="rgb(59,90,117)" d="M 1215.68 786.555 C 1216.32 786.657 1216.96 786.749 1217.6 786.863 C 1225.11 788.199 1232.71 793.06 1240.04 795.502 C 1262.61 803.02 1284.91 798.878 1307.6 794.776 C 1312.76 802.291 1318.89 808.754 1325.19 815.308 C 1306.97 824.711 1289.98 828.895 1269.46 824.769 C 1246.63 820.178 1228.28 805.745 1215.68 786.555 z"/>
<path transform="translate(0,0)" fill="rgb(255,255,255)" d="M 1487.01 651.136 C 1495.64 650.52 1502.17 651.884 1509.29 657.091 C 1525.5 668.931 1532.46 691.759 1535.57 710.64 C 1540.74 741.972 1538.1 781.285 1518.83 807.802 C 1511.29 818.172 1502.46 824.459 1489.7 826.509 C 1484.38 825.94 1479.96 825.157 1475.21 822.596 C 1457.77 813.2 1447.42 792.644 1442.26 774.281 C 1433.4 742.754 1436.42 709.103 1452.58 680.387 C 1460.65 666.051 1470.74 655.663 1487.01 651.136 z"/>
<path transform="translate(0,0)" fill="rgb(8,36,63)" d="M 1500.81 684.001 C 1503.03 683.919 1505.32 683.787 1507.53 684.017 C 1511.73 684.453 1515.7 687.852 1518.33 690.922 C 1530.01 704.575 1529.95 732.932 1528.43 749.919 C 1527.15 764.204 1523.88 778.021 1512.5 787.645 C 1509.79 788.722 1506.56 789.213 1503.67 788.663 C 1498.49 787.677 1494.66 784.014 1492 779.611 C 1483.69 765.825 1483.93 718.1 1487.83 702.399 C 1490 693.629 1493.07 688.719 1500.81 684.001 z"/>
<path transform="translate(0,0)" fill="rgb(255,255,255)" d="M 1502.28 686.772 C 1502.9 686.783 1503.52 686.778 1504.14 686.806 C 1508.95 687.018 1513.37 691.22 1516.27 694.777 C 1527.26 708.295 1525.67 737.436 1523.88 754.194 C 1522.62 765.934 1519.39 776.659 1509.96 784.343 C 1508.05 784.706 1506.12 784.652 1504.19 784.393 C 1500.67 783.919 1497.79 781.853 1495.75 778.989 C 1486.57 766.091 1488.3 720.988 1490.66 704.743 C 1492.02 695.357 1494.8 692.302 1502.28 686.772 z"/>
<path transform="translate(0,0)" fill="rgb(220,56,59)" d="M 1393.85 650.997 L 1463.36 649.065 C 1447.02 662.764 1437.48 677.513 1431.46 697.979 C 1421.25 732.728 1423.55 771.146 1441.28 803.261 C 1445.99 811.787 1451.66 818.377 1458.68 825.071 C 1446.48 824.988 1405.84 827.437 1397.1 825.14 C 1391.09 823.558 1385.72 819.91 1381.33 815.584 C 1361.13 795.68 1355.94 764.843 1356.27 737.704 C 1356.42 725.299 1357.78 713.337 1360.61 701.267 C 1366.94 680.198 1374.84 663.16 1393.85 650.997 z"/>
<path transform="translate(0,0)" fill="rgb(244,156,141)" d="M 1393.85 650.997 L 1463.36 649.065 C 1447.02 662.764 1437.48 677.513 1431.46 697.979 C 1407.93 699.156 1384.16 701.116 1360.61 701.267 C 1366.94 680.198 1374.84 663.16 1393.85 650.997 z"/>
<path transform="translate(0,0)" fill="rgb(59,90,117)" d="M 1429.9 841.003 C 1437.58 841.019 1445.28 841.154 1452.96 840.989 C 1453.01 900.803 1454.66 960.854 1453.74 1020.63 C 1445.5 1020.56 1437.11 1020.8 1428.9 1020.16 L 1409.11 1020.02 C 1408.12 960.382 1409.14 900.578 1409.08 840.917 C 1416.01 840.855 1422.96 840.972 1429.9 841.003 z"/>
<path transform="translate(0,0)" fill="rgb(96,123,142)" d="M 1409.08 840.917 C 1416.01 840.855 1422.96 840.972 1429.9 841.003 C 1427.99 900.616 1428.66 960.515 1428.9 1020.16 L 1409.11 1020.02 C 1408.12 960.382 1409.14 900.578 1409.08 840.917 z"/>
<path transform="translate(0,0)" fill="rgb(220,56,59)" d="M 1331.09 702.089 C 1335.6 705.066 1340.28 706.164 1345.54 707.124 C 1343.9 715.119 1342.92 723.237 1342.63 731.394 C 1340.78 771.989 1350.79 800.288 1377.93 830.212 C 1375.68 829.527 1373.45 828.783 1371.24 827.979 C 1353.76 821.437 1340.62 805.38 1333.34 788.715 C 1321.73 762.152 1320.4 729.15 1331.09 702.089 z"/>
<path transform="translate(0,0)" fill="rgb(255,255,255)" d="M 1328.96 674.92 C 1329.13 679.953 1321.18 690.29 1319.26 695.632 C 1314.93 707.686 1312.42 720.778 1311.52 733.532 C 1310.42 749.093 1312.31 764.719 1317.08 779.572 C 1318.77 784.823 1322.71 791.399 1322.87 796.821 L 1321.03 795.436 C 1307.55 775.422 1301.68 751.243 1304.48 727.276 C 1306.6 708.043 1313.44 687.377 1328.96 674.92 z"/>
<path transform="translate(0,0)" fill="url(#Gradient1)" d="M 1361.75 663.412 C 1354.86 677.534 1348.92 691.695 1345.54 707.124 C 1340.28 706.164 1335.6 705.066 1331.09 702.089 C 1338.56 685.213 1345.74 673.445 1361.75 663.412 z"/>
</svg>